<svg width="28" height="28" viewBox="0 0 28 28" fill="none" xmlns="http://www.w3.org/2000/svg">
<path d="M6.37922 19.9986H18.9032C20.3562 19.9986 21.4973 19.8288 22.3175 18.9474C23.139 18.0643 23.289 16.8581 23.289 15.2918V12.7069C23.289 11.1406 23.139 9.93127 22.3175 9.05132C21.4959 8.16983 20.3562 8.00009 18.9032 8.00009H6.36612C4.93279 8.00009 3.79167 8.16983 2.97009 9.05132C2.14994 9.93281 2 11.1476 2 12.6858V15.2918C2 16.8581 2.14994 18.0674 2.97009 18.9474C3.79311 19.8288 4.93279 19.9986 6.37922 19.9986ZM6.16221 18.3173C5.33408 18.3173 4.55944 18.1941 4.1112 17.7208C3.6695 17.2406 3.56427 16.4166 3.56427 15.525V12.4862C3.56427 11.5805 3.67094 10.7595 4.1112 10.2778C4.558 9.79601 5.34063 9.68137 6.18185 9.68137H19.1268C19.9549 9.68137 20.7281 9.8046 21.1712 10.2778C21.6195 10.758 21.7247 11.5734 21.7247 12.465V15.525C21.7247 16.4166 21.618 17.2391 21.1712 17.7208C20.731 18.1956 19.9549 18.3173 19.1268 18.3173H6.16221ZM24.4496 16.3266C25.1105 16.282 26 15.3706 26 13.9958C26 12.6265 25.1105 11.7166 24.4496 11.6721V16.3266Z" fill="#EAD51A"/>
<path d="M5.84965 17.2421H7.48483C7.98257 17.2421 8.27608 17.1625 8.48096 16.9407C8.68727 16.7189 8.76136 16.4051 8.76136 15.8701V12.1297C8.76136 11.5932 8.68727 11.2793 8.48096 11.0576C8.27608 10.8358 7.97603 10.7577 7.48483 10.7577H5.8693C5.35702 10.7577 5.05841 10.8358 4.85209 11.0576C4.65232 11.2793 4.57312 11.6003 4.57312 12.1438V15.8701C4.57312 16.4051 4.65232 16.7189 4.85209 16.9407C5.05841 17.1625 5.35702 17.2421 5.84965 17.2421Z" fill="#EAD51A"/>
<path d="M11.5265 17.2423H13.1617C13.6595 17.2423 13.953 17.1627 14.1578 16.9409C14.3641 16.7191 14.4382 16.4052 14.4382 15.8702V12.1299C14.4382 11.5934 14.3641 11.2795 14.1578 11.0577C13.953 10.836 13.6529 10.7579 13.1617 10.7579H11.5462C11.0339 10.7579 10.7353 10.836 10.529 11.0577C10.3292 11.2795 10.25 11.6004 10.25 12.144V15.8702C10.25 16.4052 10.3292 16.7191 10.529 16.9409C10.7353 17.1627 11.0339 17.2423 11.5265 17.2423Z" fill="#EAD51A"/>
</svg>
