<svg width="22" height="22" viewBox="0 0 22 22" fill="none" xmlns="http://www.w3.org/2000/svg">
<path d="M10.9995 0.714507C8.96517 0.714607 6.97658 1.31794 5.28518 2.4482C3.59377 3.57847 2.27551 5.1849 1.49709 7.06438C0.718669 8.94385 0.51505 11.0119 0.911982 13.0071C1.30891 15.0023 2.28857 16.835 3.72707 18.2734C5.16557 19.7119 6.9983 20.6914 8.99351 21.0883C10.9887 21.4851 13.0568 21.2814 14.9362 20.5029C16.8157 19.7244 18.422 18.406 19.5522 16.7146C20.6824 15.0231 21.2856 13.0345 21.2856 11.0002C21.2905 9.64805 21.0277 8.30832 20.5125 7.05818C19.9973 5.80804 19.2398 4.6722 18.2837 3.71612C17.3275 2.76003 16.1917 2.00259 14.9415 1.48743C13.6913 0.972275 12.3516 0.709589 10.9995 0.714507ZM10.9995 20.1528C9.18923 20.1528 7.41966 19.6161 5.91451 18.6103C4.40937 17.6046 3.23625 16.1752 2.5435 14.5028C1.85076 12.8303 1.66951 10.99 2.02267 9.21459C2.37582 7.43915 3.24753 5.8083 4.52755 4.52828C5.80757 3.24826 7.43842 2.37655 9.21386 2.02339C10.9893 1.67023 12.8296 1.85149 14.502 2.54423C16.1745 3.23697 17.6039 4.41009 18.6096 5.91524C19.6153 7.42039 20.1521 9.18996 20.1521 11.0002C20.1521 13.4276 19.1878 15.7556 17.4714 17.4721C15.7549 19.1885 13.4269 20.1528 10.9995 20.1528Z" fill="#1D4988"/>
<path d="M10.9995 19.2806C9.36163 19.2807 7.76049 18.7951 6.39859 17.8852C5.03668 16.9753 3.97519 15.682 3.34834 14.1688C2.7215 12.6556 2.55747 10.9905 2.87698 9.38405C3.19649 7.77761 3.98521 6.30201 5.14338 5.14384C6.30154 3.98567 7.77715 3.19696 9.38358 2.87744C10.99 2.55793 12.6551 2.72197 14.1683 3.34881C15.6815 3.97565 16.9749 5.03715 17.8848 6.39905C18.7947 7.76095 19.2803 9.3621 19.2802 11C19.2806 12.0876 19.0668 13.1645 18.6508 14.1694C18.2348 15.1743 17.6249 16.0873 16.8559 16.8563C16.0868 17.6253 15.1738 18.2353 14.1689 18.6513C13.1641 19.0672 12.0871 19.2811 10.9995 19.2806ZM10.9995 3.28511C9.47377 3.28511 7.98227 3.73755 6.71365 4.58522C5.44503 5.43289 4.45625 6.63771 3.87237 8.04733C3.28849 9.45695 3.13572 11.0081 3.43338 12.5045C3.73104 14.0009 4.46576 15.3755 5.54464 16.4544C6.62351 17.5333 7.99809 18.268 9.49453 18.5656C10.991 18.8633 12.5421 18.7105 13.9517 18.1267C15.3613 17.5428 16.5661 16.554 17.4138 15.2854C18.2615 14.0168 18.7139 12.5253 18.7139 10.9995C18.7101 8.95474 17.896 6.99485 16.4501 5.54904C15.0042 4.10322 13.0443 3.28933 10.9995 3.28561V3.28511Z" fill="#1D4988"/>
<path d="M10.9995 13.1354C10.5771 13.1354 10.1642 13.0101 9.81295 12.7754C9.46172 12.5407 9.18797 12.2072 9.02632 11.8169C8.86466 11.4266 8.82237 10.9972 8.90478 10.5829C8.98719 10.1686 9.1906 9.78804 9.4893 9.48934C9.78799 9.19065 10.1686 8.98723 10.5829 8.90482C10.9972 8.82241 11.4266 8.86471 11.8169 9.02636C12.2071 9.18802 12.5407 9.46176 12.7754 9.81299C13.0101 10.1642 13.1353 10.5772 13.1353 10.9996C13.1344 11.5657 12.9091 12.1084 12.5087 12.5088C12.1084 12.9091 11.5657 13.1344 10.9995 13.1354ZM10.9995 9.3873C10.6892 9.3873 10.3858 9.47932 10.1278 9.65173C9.8698 9.82413 9.66869 10.0692 9.54994 10.3559C9.43118 10.6426 9.40011 10.9581 9.46065 11.2624C9.52119 11.5668 9.67063 11.8464 9.89006 12.0658C10.1095 12.2852 10.3891 12.4347 10.6934 12.4952C10.9978 12.5557 11.3133 12.5247 11.6 12.4059C11.8867 12.2872 12.1317 12.0861 12.3041 11.828C12.4765 11.57 12.5686 11.2666 12.5686 10.9563C12.5694 10.75 12.5294 10.5456 12.4509 10.3549C12.3723 10.1641 12.2568 9.9908 12.1109 9.84493C11.9651 9.69906 11.7917 9.58352 11.601 9.50497C11.4102 9.42643 11.2058 9.38643 10.9995 9.3873Z" fill="#1D4988"/>
<path d="M11.2611 3.02408H10.6943V9.12568H11.2611V3.02408Z" fill="#1D4988"/>
<path d="M11.2611 12.9181H10.6943V19.0197H11.2611V12.9181Z" fill="#1D4988"/>
<path d="M9.03814 10.8258H2.93654V11.3926H9.03814V10.8258Z" fill="#1D4988"/>
<path d="M18.9316 10.8258H12.83V11.3926H18.9316V10.8258Z" fill="#1D4988"/>
<path d="M5.52352 5.09827L5.12276 5.49903L9.43724 9.81352L9.838 9.41276L5.52352 5.09827Z" fill="#1D4988"/>
<path d="M12.5172 12.1276L12.1164 12.5284L16.4004 16.8123L16.8011 16.4115L12.5172 12.1276Z" fill="#1D4988"/>
<path d="M9.41063 12.2626L5.12672 16.5465L5.52748 16.9472L9.81139 12.6633L9.41063 12.2626Z" fill="#1D4988"/>
<path d="M16.4399 5.20659L12.1254 9.52108L12.5261 9.92184L16.8406 5.60735L16.4399 5.20659Z" fill="#1D4988"/>
</svg>
